<svg xmlns="http://www.w3.org/2000/svg" viewBox="0 0 1200 900" width="1200" height="900" role="img">
<defs>
    <linearGradient id="bg" x1="0" y1="0" x2="0" y2="1">
      <stop offset="0%" stop-color="#f7f7f4"/>
      <stop offset="100%" stop-color="#e6e5df"/>
    </linearGradient>
    <radialGradient id="spot" cx="0.5" cy="0.28" r="0.75">
      <stop offset="0%" stop-color="#ffffff" stop-opacity="0.95"/>
      <stop offset="100%" stop-color="#ffffff" stop-opacity="0"/>
    </radialGradient>
    <linearGradient id="floorg" x1="0" y1="0" x2="0" y2="1">
      <stop offset="0%" stop-color="#dedcd4" stop-opacity="1"/>
      <stop offset="100%" stop-color="#dedcd4" stop-opacity="0.4"/>
    </linearGradient>
    <radialGradient id="contact" cx="0.5" cy="0.5" r="0.5">
      <stop offset="0%" stop-color="#000" stop-opacity="0.35"/>
      <stop offset="100%" stop-color="#000" stop-opacity="0"/>
    </radialGradient>
    <filter id="soft" x="-25%" y="-25%" width="150%" height="150%">
      <feGaussianBlur stdDeviation="18"/>
    </filter>
    <filter id="drop" x="-30%" y="-30%" width="160%" height="170%">
      <feDropShadow dx="0" dy="26" stdDeviation="26" flood-color="#000" flood-opacity="0.22"/>
    </filter>
  <linearGradient id="m14" x1="0.117" y1="0.179" x2="0.883" y2="0.821">
    <stop offset="0%"   stop-color="#c8cdd6"/>
    <stop offset="18%"  stop-color="#f2f4f7"/>
    <stop offset="38%"  stop-color="#e7eaee"/>
    <stop offset="52%"  stop-color="#f2f4f7"/>
    <stop offset="78%"  stop-color="#c8cdd6"/>
    <stop offset="100%" stop-color="#8f97a4"/>
  </linearGradient>
  <pattern id="p15" width="40" height="40" patternUnits="userSpaceOnUse">
    <path d="M0 0 H40 M0 0 V40" stroke="url(#m14)" stroke-width="4"/>
  </pattern>
  <linearGradient id="m16" x1="0.146" y1="0.146" x2="0.854" y2="0.854">
    <stop offset="0%"   stop-color="#c8cdd6"/>
    <stop offset="18%"  stop-color="#f2f4f7"/>
    <stop offset="38%"  stop-color="#e7eaee"/>
    <stop offset="52%"  stop-color="#f2f4f7"/>
    <stop offset="78%"  stop-color="#c8cdd6"/>
    <stop offset="100%" stop-color="#8f97a4"/>
  </linearGradient></defs>
<g transform="translate(600 450) scale(1.16) translate(-600 -450)">

    <rect width="1200" height="900" fill="url(#bg)"/>
    <rect width="1200" height="900" fill="url(#spot)"/>
    <rect y="684" width="1200" height="216" fill="url(#floorg)"/>
  <ellipse cx="600" cy="680" rx="340" ry="24" fill="url(#contact)"/>
  <g filter="url(#drop)">
    <g>
    <rect x="250" y="180" width="700" height="480" fill="#0f1319" opacity=".18"/>
    <rect x="250" y="180" width="700" height="480" fill="url(#p15)"/>
    <rect x="250" y="180" width="700" height="480" fill="none" stroke="url(#m14)" stroke-width="12"/>
  </g>
    <rect x="635" y="190" width="280" height="460" fill="none" stroke="url(#m16)" stroke-width="9"/>
    <circle cx="670" cy="420" r="11" fill="url(#m16)"/>
    <rect x="236" y="166" width="728" height="18" rx="6" fill="url(#m16)"/>
  </g>
</g>
</svg>