<svg xmlns="http://www.w3.org/2000/svg" viewBox="0 0 1200 900" width="1200" height="900" role="img">
<defs>
    <linearGradient id="bg" x1="0" y1="0" x2="0" y2="1">
      <stop offset="0%" stop-color="#0d2e3d"/>
      <stop offset="100%" stop-color="#04222f"/>
    </linearGradient>
    <radialGradient id="spot" cx="0.5" cy="0.28" r="0.75">
      <stop offset="0%" stop-color="#2e7ea0" stop-opacity="0.16"/>
      <stop offset="100%" stop-color="#ffffff" stop-opacity="0"/>
    </radialGradient>
    <linearGradient id="floorg" x1="0" y1="0" x2="0" y2="1">
      <stop offset="0%" stop-color="#062733" stop-opacity="1"/>
      <stop offset="100%" stop-color="#062733" stop-opacity="0.4"/>
    </linearGradient>
    <radialGradient id="contact" cx="0.5" cy="0.5" r="0.5">
      <stop offset="0%" stop-color="#000" stop-opacity="0.75"/>
      <stop offset="100%" stop-color="#000" stop-opacity="0"/>
    </radialGradient>
    <filter id="soft" x="-25%" y="-25%" width="150%" height="150%">
      <feGaussianBlur stdDeviation="18"/>
    </filter>
    <filter id="drop" x="-30%" y="-30%" width="160%" height="170%">
      <feDropShadow dx="0" dy="26" stdDeviation="26" flood-color="#000" flood-opacity="0.6"/>
    </filter>
  <linearGradient id="m8" x1="0.146" y1="0.146" x2="0.854" y2="0.854">
    <stop offset="0%"   stop-color="#272c36"/>
    <stop offset="18%"  stop-color="#454b57"/>
    <stop offset="38%"  stop-color="#565d6b"/>
    <stop offset="52%"  stop-color="#454b57"/>
    <stop offset="78%"  stop-color="#272c36"/>
    <stop offset="100%" stop-color="#15181f"/>
  </linearGradient>
  <linearGradient id="m9" x1="0.552" y1="0.003" x2="0.448" y2="0.997">
    <stop offset="0%"   stop-color="#272c36"/>
    <stop offset="18%"  stop-color="#454b57"/>
    <stop offset="38%"  stop-color="#565d6b"/>
    <stop offset="52%"  stop-color="#454b57"/>
    <stop offset="78%"  stop-color="#272c36"/>
    <stop offset="100%" stop-color="#15181f"/>
  </linearGradient></defs>
<g transform="translate(600 450) scale(1.16) translate(-600 -450)">

    <rect width="1200" height="900" fill="url(#bg)"/>
    <rect width="1200" height="900" fill="url(#spot)"/>
    <rect y="684" width="1200" height="216" fill="url(#floorg)"/>
  <ellipse cx="600" cy="686" rx="330" ry="28" fill="url(#contact)"/>
  <g filter="url(#drop)">
    <rect x="300" y="170" width="600" height="500" rx="8" fill="url(#m8)"/>
    <rect x="300" y="170" width="600" height="500" rx="8" fill="none" stroke="rgb(0 0 0 / .28)" stroke-width="2"/>
    <rect x="314" y="184" width="572" height="472" rx="4" fill="#0d1116" opacity=".55"/>
    <g><rect x="320" y="196" width="560" height="448" fill="url(#m9)" rx="3"/><rect x="320" y="196" width="560" height="32" fill="none" stroke="rgb(0 0 0 / .30)" stroke-width="1.6"/><rect x="320" y="199.84" width="560" height="6.4" fill="rgb(255 255 255 / .22)"/><rect x="320" y="219.68" width="560" height="5.12" fill="rgb(0 0 0 / .14)"/><rect x="320" y="228" width="560" height="32" fill="none" stroke="rgb(0 0 0 / .30)" stroke-width="1.6"/><rect x="320" y="231.84" width="560" height="6.4" fill="rgb(255 255 255 / .22)"/><rect x="320" y="251.68" width="560" height="5.12" fill="rgb(0 0 0 / .14)"/><rect x="320" y="260" width="560" height="32" fill="none" stroke="rgb(0 0 0 / .30)" stroke-width="1.6"/><rect x="320" y="263.84" width="560" height="6.4" fill="rgb(255 255 255 / .22)"/><rect x="320" y="283.68" width="560" height="5.12" fill="rgb(0 0 0 / .14)"/><rect x="320" y="292" width="560" height="32" fill="none" stroke="rgb(0 0 0 / .30)" stroke-width="1.6"/><rect x="320" y="295.84" width="560" height="6.4" fill="rgb(255 255 255 / .22)"/><rect x="320" y="315.68" width="560" height="5.12" fill="rgb(0 0 0 / .14)"/><rect x="320" y="324" width="560" height="32" fill="none" stroke="rgb(0 0 0 / .30)" stroke-width="1.6"/><rect x="320" y="327.84" width="560" height="6.4" fill="rgb(255 255 255 / .22)"/><rect x="320" y="347.68" width="560" height="5.12" fill="rgb(0 0 0 / .14)"/><rect x="320" y="356" width="560" height="32" fill="none" stroke="rgb(0 0 0 / .30)" stroke-width="1.6"/><rect x="320" y="359.84" width="560" height="6.4" fill="rgb(255 255 255 / .22)"/><rect x="320" y="379.68" width="560" height="5.12" fill="rgb(0 0 0 / .14)"/><rect x="320" y="388" width="560" height="32" fill="none" stroke="rgb(0 0 0 / .30)" stroke-width="1.6"/><rect x="320" y="391.84" width="560" height="6.4" fill="rgb(255 255 255 / .22)"/><rect x="320" y="411.68" width="560" height="5.12" fill="rgb(0 0 0 / .14)"/><rect x="320" y="420" width="560" height="32" fill="none" stroke="rgb(0 0 0 / .30)" stroke-width="1.6"/><rect x="320" y="423.84" width="560" height="6.4" fill="rgb(255 255 255 / .22)"/><rect x="320" y="443.68" width="560" height="5.12" fill="rgb(0 0 0 / .14)"/><rect x="320" y="452" width="560" height="32" fill="none" stroke="rgb(0 0 0 / .30)" stroke-width="1.6"/><rect x="320" y="455.84" width="560" height="6.4" fill="rgb(255 255 255 / .22)"/><rect x="320" y="475.68" width="560" height="5.12" fill="rgb(0 0 0 / .14)"/><rect x="320" y="484" width="560" height="32" fill="none" stroke="rgb(0 0 0 / .30)" stroke-width="1.6"/><rect x="320" y="487.84" width="560" height="6.4" fill="rgb(255 255 255 / .22)"/><rect x="320" y="507.68" width="560" height="5.12" fill="rgb(0 0 0 / .14)"/><rect x="320" y="516" width="560" height="32" fill="none" stroke="rgb(0 0 0 / .30)" stroke-width="1.6"/><rect x="320" y="519.84" width="560" height="6.4" fill="rgb(255 255 255 / .22)"/><rect x="320" y="539.68" width="560" height="5.12" fill="rgb(0 0 0 / .14)"/><rect x="320" y="548" width="560" height="32" fill="none" stroke="rgb(0 0 0 / .30)" stroke-width="1.6"/><rect x="320" y="551.84" width="560" height="6.4" fill="rgb(255 255 255 / .22)"/><rect x="320" y="571.68" width="560" height="5.12" fill="rgb(0 0 0 / .14)"/><rect x="320" y="580" width="560" height="32" fill="none" stroke="rgb(0 0 0 / .30)" stroke-width="1.6"/><rect x="320" y="583.84" width="560" height="6.4" fill="rgb(255 255 255 / .22)"/><rect x="320" y="603.68" width="560" height="5.12" fill="rgb(0 0 0 / .14)"/><rect x="320" y="612" width="560" height="32" fill="none" stroke="rgb(0 0 0 / .30)" stroke-width="1.6"/><rect x="320" y="615.84" width="560" height="6.4" fill="rgb(255 255 255 / .22)"/><rect x="320" y="635.68" width="560" height="5.12" fill="rgb(0 0 0 / .14)"/></g>
    <rect x="320" y="628" width="560" height="16" rx="4" fill="rgb(0 0 0 / .45)"/>
    <rect x="554" y="632" width="92" height="9" rx="4.5" fill="rgb(255 255 255 / .55)"/>
  </g>
  <rect x="324" y="678" width="26" height="26" rx="4" fill="rgb(0 0 0 / .35)"/>
  <rect x="850" y="678" width="26" height="26" rx="4" fill="rgb(0 0 0 / .35)"/>
</g>
</svg>